<?xml version="1.0" encoding="UTF-8"?>
<svg id="Layer_2" data-name="Layer 2" xmlns="http://www.w3.org/2000/svg" viewBox="0 0 80.71 128.58">
  <defs>
    <style>
      .cls-1 {
        fill: #fff;
      }
    </style>
  </defs>
  <g id="Layer_1-2" data-name="Layer 1">
    <g>
      <path class="cls-1" d="M64.43,72.1c-8.98,0-16.28,7.28-16.28,16.24s7.3,16.24,16.28,16.24,16.28-7.28,16.28-16.24-7.3-16.24-16.28-16.24Z"/>
      <path class="cls-1" d="M32.56,88.34c0-8.95-7.3-16.24-16.28-16.24S0,79.38,0,88.34s7.3,16.24,16.28,16.24,16.28-7.28,16.28-16.24Z"/>
      <path class="cls-1" d="M40.38,96.11c-8.98,0-16.28,7.28-16.28,16.24s7.3,16.24,16.28,16.24,16.28-7.28,16.28-16.24-7.3-16.24-16.28-16.24Z"/>
      <path class="cls-1" d="M4.91,51.87c6.35,6.24,16.59,6.2,22.89-.11.17-.17.34-.38.51-.6l.25-.32.29.29c.21.21.38.38.59.55l.36.29-.36.28c-.2.16-.41.33-.57.52-6.36,6.36-6.36,16.66-.03,22.99,6.34,6.34,16.66,6.34,23,0,3.06-3.06,4.75-7.14,4.75-11.48s-1.69-8.42-4.75-11.48c-.21-.21-.38-.38-.59-.55l-.36-.28.36-.29c.22-.17.42-.33.57-.52l.25-.32.29.29c.1.09.19.2.28.31.08.09.17.19.25.27,6.34,6.34,16.66,6.34,23,0,6.33-6.33,6.33-16.63,0-22.96-6.34-6.34-16.66-6.34-23,0l-.26.26-.26-.26c-.09-.09-.19-.2-.28-.3-.08-.1-.17-.19-.25-.28l-.26-.26.26-.26c3.06-3.06,4.75-7.13,4.75-11.46s-1.69-8.4-4.75-11.46c-6.34-6.34-16.66-6.34-23,0-6.32,6.32-6.32,16.6,0,22.91l.26.26-.26.26c-.08.08-.17.18-.25.27-.09.11-.19.21-.28.31l-.26.26-.26-.26c-6.34-6.34-16.66-6.34-23,0-6.33,6.33-6.33,16.63,0,22.96l.11.15ZM33.69,33.6c1.29-1.29,3.19-1.78,5.36-1.39,4.37.77,8.57,4.97,9.35,9.35.39,2.17-.11,4.08-1.4,5.36-1,1-2.38,1.52-3.96,1.52-.45,0-.92-.04-1.4-.13-4.37-.78-8.57-4.97-9.35-9.35-.39-2.17.11-4.08,1.4-5.36Z"/>
      <path class="cls-1" d="M41.37,44.18l.56.71,3.25-2.72-.57-.65c-1.76-2.02-3.08-3.32-5.42-5.34l-.55-.48-3.19,2.52.78.67c2.15,1.83,3.49,3.21,5.14,5.29Z"/>
      <path class="cls-1" d="M39.19,84.6l-.55-.48-3.19,2.52.78.67c2.15,1.83,3.49,3.22,5.14,5.29l.56.71,3.25-2.72-.57-.65c-1.76-2.02-3.08-3.32-5.42-5.34Z"/>
    </g>
  </g>
</svg>